Coordinates
version=1
nRows=17
nColumns=36
inDegrees=yes

Units are S.I. units (second, meters, Newtons, ...)
If the header above contains a line with 'inDegrees', this indicates whether rotational values are in degrees (yes) or radians (no).

endheader
time	pelvis_tilt	pelvis_list	pelvis_rotation	pelvis_tx	pelvis_ty	pelvis_tz	hip_flexion_r	hip_adduction_r	hip_rotation_r	knee_angle_r	knee_angle_r_beta	ankle_angle_r	subtalar_angle_r	mtp_angle_r	hip_flexion_l	hip_adduction_l	hip_rotation_l	knee_angle_l	knee_angle_l_beta	ankle_angle_l	subtalar_angle_l	mtp_angle_l	lumbar_extension	lumbar_bending	lumbar_rotation	arm_flex_r	arm_add_r	arm_rot_r	elbow_flex_r	pro_sup_r	arm_flex_l	arm_add_l	arm_rot_l	elbow_flex_l	pro_sup_l
      0.00000000	      0.00714257	      1.16624110	      1.69255096	     -0.22370320	      0.91776398	     -0.21585945	     26.26027865	     -0.85319510	     -2.53842287	      1.58436766	      0.02765243	      6.97559055	     -1.41676756	     -5.44708785	    -22.58651994	      3.50492517	     -0.36526975	      5.83985664	      0.10192473	     12.42791109	     -1.05969320	     -5.44708785	    -10.45749182	     -2.45246925	     -3.57355468	     -5.16131705	     -4.32800981	     -9.50227980	     34.89895905	    111.32200546	      5.92656981	    -10.61046435	      9.18748174	     31.80686341	    106.15702822
      0.01000000	     -0.00112602	      0.87809227	      1.96177011	     -0.20840727	      0.91606769	     -0.21558318	     26.17856828	     -0.51677581	     -2.79161119	      2.52248381	      0.04402565	      5.12684335	     -2.94312297	     -5.49332402	    -22.71155934	      2.94876739	     -0.64647871	      7.31557551	      0.12768088	     11.90079342	     -1.15131415	     -5.49332402	    -10.04405305	     -1.62374974	     -3.68855706	     -5.45992115	     -4.30773635	     -9.77113112	     34.50501109	    111.22026411	      5.54236811	    -10.34245473	      8.96337428	     31.39165472	    106.21158627
      0.02000000	     -0.07925618	      0.61041724	      2.13785159	     -0.19321393	      0.91432245	     -0.21499305	     26.10730225	     -0.09815299	     -2.07612851	      3.32910795	      0.05810389	      2.23821865	     -6.38932934	     -5.59564975	    -22.66410220	      2.41440541	     -1.03384478	      8.94796039	      0.15617137	     11.47065786	     -0.98852463	     -5.59564975	     -9.56916309	     -0.85298065	     -3.65253447	     -5.78251672	     -4.22575160	    -10.36285915	     34.16117699	    111.10533475	      5.20745490	    -10.04612271	      8.56660647	     30.93422710	    106.36604057
      0.03000000	     -0.14571268	      0.22852818	      2.30102009	     -0.17784639	      0.91282201	     -0.21434131	     26.09780035	      0.41327088	     -1.87944787	      4.35623916	      0.07603072	     -0.30111921	     -8.73420167	     -5.71640824	    -22.53326218	      1.76250508	     -1.42185654	     10.71672266	      0.18704210	     10.65002827	     -1.16131065	     -5.71640824	     -9.06752334	      0.05026788	     -3.60427100	     -6.11737358	     -4.19465418	    -10.79936275	     33.87537845	    111.08066177	      4.83119858	     -9.75883724	      8.32841736	     30.48691304	    106.52956841
      0.04000000	     -0.14397545	     -0.18470435	      2.43383074	     -0.16235146	      0.91173883	     -0.21363490	     26.14710248	      0.90004060	     -2.28867474	      5.75224782	      0.10039566	     -1.70644079	     -9.34241613	     -5.73804669	    -22.30281039	      1.07919036	     -1.83484438	     12.74262448	      0.22240075	      9.48673292	     -1.58716173	     -5.73804669	     -8.65443166	      0.98473006	     -3.52252858	     -6.40737486	     -4.26386560	    -10.98429771	     33.55578680	    111.04938763	      4.44542006	     -9.44767698	      8.18375368	     30.07289883	    106.50696967
      0.05000000	     -0.39359312	     -0.59384155	      2.40147473	     -0.14696077	      0.91068727	     -0.21255259	     26.41084293	      1.51073456	     -1.68209496	      7.05716212	      0.12317071	     -4.35930265	    -11.89592907	     -5.81709115	    -21.58692970	      0.48920526	     -2.08014162	     15.09677256	      0.26348839	      8.02014208	     -2.56852475	     -5.81709115	     -7.91708580	      1.87892680	     -3.29012647	     -6.64121469	     -4.26865493	    -11.46363447	     33.06729198	    111.00843237	      4.10023415	     -8.99611062	      7.66566575	     29.32255794	    106.47454457
      0.06000000	     -0.44782796	     -1.17452045	      2.29730694	     -0.13136862	      0.91033217	     -0.21132723	     26.47456666	      2.29858510	     -1.39738719	      8.54154206	      0.14907803	     -6.06050024	    -13.38751039	     -5.90027652	    -20.88655036	     -0.29796095	     -2.63481077	     17.70221243	      0.30896189	      5.97690017	     -3.69971944	     -5.90027652	     -7.42141925	      2.97885316	     -2.99462089	     -6.85351460	     -4.39959539	    -11.69836813	     32.67333050	    111.00579490	      3.67884250	     -8.56162388	      7.24253863	     28.80519564	    106.45747919
      0.07000000	     -0.32733789	     -1.83890630	      2.12393990	     -0.11590260	      0.91061229	     -0.20990244	     26.38062182	      3.17465669	     -1.33821616	     10.20442873	      0.17810088	     -6.64749398	    -13.80741113	     -5.91900809	    -20.07595648	     -1.24482522	     -3.48699806	     20.77679143	      0.36262342	      3.74914048	     -4.40683458	     -5.91900809	     -7.18693956	      4.12929664	     -2.58129277	     -6.97641402	     -4.58662416	    -11.79835399	     32.32210817	    110.98435271	      3.33401219	     -8.13214153	      6.98224004	     28.35828216	    106.39603612
      0.08000000	     -0.46541107	     -2.40705935	      1.83342767	     -0.10067085	      0.91092299	     -0.20840124	     26.62480911	      4.01003157	     -0.78801283	     12.06570878	      0.21058634	     -7.45050298	    -15.09340858	     -5.97785671	    -18.74899321	     -1.96724459	     -3.90729205	     24.11989720	      0.42097162	      0.61173644	     -6.51575691	     -5.97785671	     -6.62889655	      5.16950012	     -2.11733703	     -7.04567258	     -4.77747089	    -11.98671083	     31.79293695	    110.96634511	      2.97684339	     -7.52933325	      6.12952901	     27.59833361	    106.25303972
      0.09000000	     -0.18442570	     -3.21879299	      1.50100130	     -0.08546511	      0.91213029	     -0.20665626	     26.25397612	      5.14004242	     -0.51358488	     13.73106517	      0.23965230	     -7.24339433	    -15.66321176	     -5.99591586	    -17.62620249	     -3.14138904	     -4.95680162	     27.84006256	      0.48590076	     -2.31434284	     -7.31588025	     -5.99591586	     -6.64852744	      6.46307727	     -1.56188601	     -7.02782360	     -5.05919134	    -12.05439874	     31.44129449	    110.95317553	      2.63889990	     -7.03244684	      5.74858673	     27.19115700	    106.17610723
      0.10000000	     -0.18119880	     -3.82645282	      1.11974290	     -0.07074034	      0.91322675	     -0.20495469	     26.20090461	      6.07537853	      0.02120512	     15.47657123	      0.27011712	     -7.12140948	    -16.55603062	     -6.05218586	    -15.97520668	     -3.95474987	     -5.37551942	     31.71762111	      0.55357692	     -6.52390990	    -10.12657684	     -6.05218586	     -6.37511581	      7.47875008	     -1.05918870	     -6.92527543	     -5.30314011	    -12.11759060	     30.97791839	    110.97278804	      2.31277461	     -6.37862066	      4.48682902	     26.58145643	    106.00176430
      0.11000000	      0.16454927	     -4.69213915	      0.76019373	     -0.05610083	      0.91499017	     -0.20297138	     25.50801784	      7.31222524	      0.38077489	     16.76455969	      0.29259676	     -6.39721227	    -17.04749546	     -6.07206262	    -14.54322171	     -5.30307827	     -6.28335631	     35.77886455	      0.62445899	     -9.74701348	    -10.91276531	     -6.07206262	     -6.55214194	      8.73688307	     -0.47114749	     -6.79559656	     -5.60535904	    -12.13298958	     30.66474357	    110.97766013	      2.01376534	     -5.87472892	      3.93752231	     26.24051947	    105.92196446
      0.12000000	      0.44530818	     -5.44488463	      0.39025892	     -0.04189341	      0.91684970	     -0.20098460	     24.74541007	      8.42575178	      0.71954914	     17.77124388	      0.31016672	     -5.60931367	    -17.48898970	     -6.08905790	    -12.90972232	     -6.50029500	     -6.88896364	     39.84398892	      0.69540879	    -12.94654931	    -12.07515148	     -6.08905790	     -6.68976371	      9.81847514	      0.10702260	     -6.61950422	     -5.88390195	    -12.14147130	     30.38973253	    110.98931629	      1.77632370	     -5.35054702	      3.25162628	     25.82899243	    105.81437161
      0.13000000	      0.68957095	     -5.89277586	      0.06908397	     -0.02823989	      0.91891027	     -0.19917600	     23.94186676	      9.17440820	      1.07527868	     18.64037984	      0.32533600	     -4.86592748	    -17.62380569	     -6.16205852	    -11.18672699	     -7.13851172	     -6.85986520	     43.52767617	      0.75970126	    -17.36472743	    -15.68106894	     -6.16205852	     -6.85960557	     10.46435486	      0.39818374	     -6.20333750	     -6.09949282	    -11.93507149	     30.04650383	    111.11062824	      1.39912014	     -4.71536068	      1.01165802	     25.74724690	    105.68624991
      0.14000000	      1.09620992	     -6.50060818	     -0.22013020	     -0.01475239	      0.92132793	     -0.19708578	     22.67188090	     10.11244334	      1.39859107	     18.93640615	      0.33050264	     -4.01519063	    -17.78551082	     -6.17507744	     -9.61154012	     -8.15065294	     -7.06366924	     47.16026962	      0.82310198	    -18.83748216	    -16.15028177	     -6.17507744	     -7.22481313	     11.23253298	      0.93928829	     -5.93619845	     -6.30558656	    -11.87734303	     29.89650984	    111.13038225	      1.24227753	     -4.35982807	      0.57143281	     25.51674162	    105.64920405
      0.15000000	      1.31565144	     -6.95483328	     -0.48219320	     -0.00165404	      0.92366249	     -0.19508021	     21.47595441	     10.83973659	      1.66217687	     18.94627245	      0.33067484	     -3.18907754	    -17.71398431	     -6.19200393	     -7.76906825	     -8.91882508	     -7.06172946	     50.54300810	      0.88214191	    -19.77461057	    -17.42636466	     -6.19200393	     -7.36981385	     11.78219661	      1.33948670	     -5.63644112	     -6.48034698	    -11.78430645	     29.85084272	    111.17287320	      1.08278430	     -3.98809319	     -0.16990856	     25.17483718	    105.57224656
      0.16000000	      1.54386898	     -7.16208609	     -0.71877278	      0.01108286	      0.92621845	     -0.19320708	     20.23622052	     11.24697536	      1.79907849	     18.87721271	      0.32946952	     -2.34028595	    -17.30233710	     -6.21848771	     -5.95774846	     -9.29205620	     -6.87587545	     53.48074949	      0.93341517	    -20.02215881	    -19.02081804	     -6.21848771	     -7.55641288	     12.00100488	      1.61996523	     -5.28405546	     -6.59513427	    -11.60607301	     29.87199012	    111.25068475	      0.91213170	     -3.65599398	     -1.26180868	     24.94657722	    105.49237723
